<?xml version="1.0" encoding="UTF-8" standalone="no"?>
<svg viewBox="0 0 84 96" version="1.1" xmlns="http://www.w3.org/2000/svg" xmlns:xlink="http://www.w3.org/1999/xlink" xmlns:sketch="http://www.bohemiancoding.com/sketch/ns">
    <!-- Generator: Sketch 3.4 (15575) - http://www.bohemiancoding.com/sketch -->
    <title>Imported Layers</title>
    <desc>Created with Sketch.</desc>
    <defs></defs>
    <g id="Page-1" stroke="none" stroke-width="1" fill="none" fill-rule="evenodd" sketch:type="MSPage">
        <g id="Imported-Layers" sketch:type="MSLayerGroup" fill="#2A3859">
            <path d="M83.9876078,95.9863303 L0.0177254902,95.9863303 L4.18117647,88.6569764 L78.7745882,88.6569764 L83.9876078,95.9863303" id="Fill-1" sketch:type="MSShapeGroup"></path>
            <path d="M75.4168627,83.9412596 L77.5458039,86.9340537 L67.3414902,86.9340537 L41.0548235,76.0849601 L17.551451,85.7054255 L17.5563137,85.7102685 L14.5686275,86.9331164 L5.15647059,86.9331164 L6.91631373,83.8376046 L14.132,83.4862555 L14.132,67.6123548 C19.4838431,63.2336143 33.8333333,61.2697152 40.9170196,61.3551701 L40.9170196,61.3762604 L41.3149804,61.3599349 L41.3612549,61.3599349 L41.770902,61.3762604 L41.770902,61.3551701 C48.3167843,61.2745582 61.9048627,63.0675476 67.782902,67.0422132 L67.914902,83.6359967 L75.4168627,83.9412596 L75.4168627,83.9412596 Z M63.5876078,78.6515736 L63.5876078,69.6040618 C63.5876078,69.298799 63.4392157,69.0243124 63.1847843,68.8237201 C62.9409412,68.6211749 62.5959216,68.5011945 62.2152157,68.5011945 C61.4586667,68.5011945 60.8486275,68.9965045 60.8486275,69.6040618 L60.8486275,78.6515736 C60.8486275,78.9567583 61.0028235,79.231323 61.2447059,79.4319154 C61.4934118,79.6277429 61.8335686,79.7524882 62.2152157,79.7524882 C62.9766275,79.7524882 63.5876078,79.2600683 63.5876078,78.6515736 L63.5876078,78.6515736 Z M56.5222745,76.6186233 L56.5222745,66.8281855 C56.5222745,66.500895 56.3680784,66.2033653 56.1251765,65.990275 C55.8784314,65.770467 55.5372549,65.6399414 55.1566275,65.6399414 C54.3942745,65.6399414 53.7822745,66.1754793 53.7822745,66.8281855 L53.7822745,76.6186233 C53.7822745,76.9516941 53.9326275,77.2492238 54.1870588,77.4613767 C54.4289412,77.6811066 54.7759216,77.8117103 55.1566275,77.8117103 C55.9093333,77.813585 56.5222745,77.2780472 56.5222745,76.6186233 L56.5222745,76.6186233 Z M49.4568627,75.083795 L49.4568627,65.2972628 C49.4568627,64.9699723 49.3075294,64.6694744 49.0540392,64.4516192 C48.8121569,64.233764 48.4651765,64.1022229 48.0854902,64.1022229 C47.3298824,64.1022229 46.7169412,64.6369015 46.7169412,65.2982002 L46.7169412,75.0848104 C46.7169412,75.4121009 46.8730196,75.7105679 47.1149804,75.9227209 C47.3626667,76.1425289 47.7038431,76.2739919 48.0844706,76.2739919 C48.8468235,76.2730545 49.4568627,75.738454 49.4568627,75.083795 L49.4568627,75.083795 Z M42.392549,74.3092335 L42.392549,64.9574744 C42.392549,64.6436192 42.2363922,64.3546819 41.9945098,64.1473718 C41.7467451,63.9399837 41.4056471,63.8132856 41.0258824,63.8132856 C40.264549,63.8132856 39.6544314,64.3258584 39.6544314,64.956537 L39.6544314,74.3082962 C39.6544314,74.616371 39.8038431,74.9033556 40.0582745,75.111681 C40.3001569,75.318991 40.6471373,75.4456892 41.0268235,75.4456892 C41.780549,75.4466265 42.392549,74.9340537 42.392549,74.3092335 L42.392549,74.3092335 Z M35.3271373,75.227834 L35.3271373,65.4373963 C35.3271373,65.1043255 35.1778039,64.8067958 34.9232941,64.5955801 C34.6814118,64.3757722 34.335451,64.2452465 33.9547451,64.2452465 C33.1991373,64.2452465 32.5881569,64.7789097 32.5881569,65.4393491 L32.5881569,75.2287714 C32.5881569,75.5569992 32.7432941,75.854607 32.9861961,76.0666819 C33.2348235,76.2864898 33.5750588,76.4180309 33.9547451,76.4180309 C34.7151373,76.4180309 35.3271373,75.882415 35.3271373,75.227834 L35.3271373,75.227834 Z M28.2618039,76.6186233 L28.2618039,66.8281855 C28.2618039,66.500895 28.1056471,66.2033653 27.8628235,65.990275 C27.6151373,65.770467 27.274902,65.6399414 26.8941961,65.6399414 C26.1328627,65.6399414 25.5218039,66.1754793 25.5218039,66.8281855 L25.5218039,76.6186233 C25.5218039,76.9516941 25.6712157,77.2492238 25.9256471,77.4613767 C26.1675294,77.6811066 26.512549,77.8117103 26.8941961,77.8117103 C27.6507451,77.813585 28.2618039,77.2780472 28.2618039,76.6186233 L28.2618039,76.6186233 Z M21.1963922,78.6515736 L21.1963922,69.6040618 C21.1963922,69.298799 21.045098,69.0243124 20.7926275,68.8237201 C20.5507451,68.6211749 20.2037647,68.5011945 19.824,68.5011945 C19.0684706,68.5011945 18.4574118,68.9965045 18.4574118,69.6040618 L18.4574118,78.6515736 C18.4574118,78.9567583 18.612549,79.231323 18.855451,79.4319154 C19.1031373,79.6277429 19.4423529,79.7524882 19.824,79.7524882 C20.5844706,79.7524882 21.1963922,79.2600683 21.1963922,78.6515736 L21.1963922,78.6515736 Z" id="Fill-2" sketch:type="MSShapeGroup"></path>
            <path d="M70.117098,63.5944931 C70.597098,65.0025452 70.4283922,66.1514988 70.2260392,66.7878796 C69.9089412,66.4845696 69.5504314,66.1861025 69.1533333,65.8962278 C62.7818824,61.2342522 47.7163137,59.4882864 41.3603137,59.6370903 L41.3140392,59.6370903 C34.4395294,59.4882864 18.5374118,61.4050838 12.7229804,66.5402636 C12.7229804,66.5402636 11.9770196,65.1129178 12.566902,63.5992579 C13.6974118,62.6183238 15.288549,61.6882408 17.3134118,60.8311147 C24.4539608,57.8037168 35.5671373,56.378402 41.0818039,56.4829943 L41.0818039,56.4945549 C41.1569412,56.4887746 41.2321569,56.4887746 41.3304314,56.4887746 L41.3651765,56.4887746 C41.450902,56.4887746 41.5260392,56.4887746 41.6012549,56.4945549 L41.6012549,56.4839317 C46.2148235,56.3966021 55.7435294,57.4083124 63.1693333,59.9892986 C66.2572549,61.0633426 68.5992157,62.2756452 70.117098,63.5944931" id="Fill-3" sketch:type="MSShapeGroup"></path>
            <path d="M65.3243137,51.1183987 C60.4852549,45.7308381 47.1516078,43.3715346 40.771451,43.5644719 L40.7492549,43.5644719 C34.8886275,43.3984052 21.2590588,45.4899398 16.2301176,51.0973084 C16.2243922,51.108869 16.2118431,51.1126965 16.2069804,51.124179 C15.8706667,48.4558633 16.8816471,47.1495134 16.8816471,47.1495134 C18.1913725,45.8844068 20.0543529,44.7249081 22.429098,43.6853897 C28.705098,40.9508348 36.6812549,39.8710106 40.5574902,39.963105 L40.5574902,39.9813832 C40.6201569,39.9756029 40.6779608,39.9698226 40.7647059,39.9698226 L40.7936471,39.9698226 C40.8562353,39.9698226 40.9141176,39.9756029 40.9728627,39.9813832 L40.9728627,39.963105 C44.7739608,39.8719479 52.7153725,40.9277917 58.9962353,43.6393035 C61.7641569,44.8352807 63.846902,46.1963873 65.1720784,47.6821611 C65.6895686,49.1037266 65.4389804,50.5780179 65.3243137,51.1183987" id="Fill-4" sketch:type="MSShapeGroup"></path>
            <path d="M64.1697255,52.4247486 L64.1697255,58.5130545 C64.0251765,58.4593133 63.8825098,58.4103369 63.7370196,58.3585484 C62.088,57.7845793 60.334902,57.2902067 58.5586667,56.8592612 C58.5702745,56.8295004 58.5770196,56.800677 58.5770196,56.7661513 L58.5770196,51.9409992 C58.5770196,51.6137087 58.0931765,51.3564849 57.4995294,51.3564849 C56.8990588,51.3564849 56.4143529,51.6146461 56.4143529,51.9409992 L56.4143529,56.3822295 C55.2539608,56.1422685 54.0945098,55.9282408 52.9582745,55.7506135 C52.9823529,55.7046054 52.9938824,55.6575037 52.9938824,55.6066526 L52.9938824,50.3563352 C52.9938824,50.006939 52.5101176,49.7180016 51.915451,49.7180016 C51.316,49.7180016 50.8312157,50.006939 50.8312157,50.3563352 L50.8312157,55.4348055 C49.642902,55.2678015 48.4883137,55.1354011 47.3982745,55.0307307 C47.4098824,54.9971424 47.4175686,54.9635541 47.4175686,54.9290285 L47.4175686,49.3417347 C47.4175686,48.9616404 46.9327843,48.6554402 46.331451,48.6554402 C45.7386667,48.6554402 45.2529412,48.9616404 45.2529412,49.3417347 L45.2529412,54.8666168 C43.9519216,54.7850675 42.7905098,54.7514011 41.8210196,54.7648365 C41.832549,54.7341383 41.832549,54.7043775 41.832549,54.6756322 L41.832549,48.8675932 C41.832549,48.4769536 41.3487843,48.162083 40.7541176,48.162083 C40.1546667,48.162083 39.6689412,48.4769536 39.6689412,48.8675932 L39.6689412,54.6756322 C39.6689412,54.7034402 39.6746667,54.7389813 39.6872157,54.7687421 C38.6607843,54.7860049 37.5072157,54.8493539 36.2552941,54.948166 L36.2552941,49.4233621 C36.2552941,49.0432677 35.771451,48.7380049 35.1700392,48.7380049 C34.5705882,48.7380049 34.0868235,49.0432677 34.0868235,49.4233621 L34.0868235,55.0172954 C34.0868235,55.0614288 34.0916078,55.1036876 34.1089412,55.1497738 C33.0073725,55.2697543 31.8547451,55.4194955 30.6721569,55.5970448 L30.6721569,50.3592254 C30.6721569,50.0088918 30.1873725,49.7218291 29.5879216,49.7218291 C28.9942745,49.7218291 28.5094902,50.0088918 28.5094902,50.3592254 L28.5094902,55.6095427 C28.5094902,55.7247583 28.5625098,55.8341155 28.6598431,55.9243352 C27.4715294,56.1307079 26.2783529,56.373559 25.0900392,56.6365631 L25.0900392,51.942952 C25.0900392,51.6156615 24.6061961,51.3583596 24.0116078,51.3583596 C23.4121569,51.3583596 22.9273725,51.6165989 22.9273725,51.942952 L22.9273725,56.7681041 C22.9273725,56.8957396 23.0025098,57.0157201 23.1355294,57.1078145 C21.2561569,57.5896892 19.4269804,58.1598308 17.736549,58.8077722 L17.736549,52.0216111 C22.287451,47.3058942 34.4684706,45.1866298 40.4158431,45.2854418 L40.4158431,45.3037201 C40.5083922,45.2979398 40.6008627,45.2921595 40.7155294,45.2921595 L40.7791373,45.2921595 L41.1251765,45.3094223 L41.1251765,45.2873946 C47.2546667,45.1913946 59.9831373,47.4777413 64.1697255,52.4247486" id="Fill-5" sketch:type="MSShapeGroup"></path>
            <path d="M62.7973333,86.9340537 L19.1253333,86.9340537 L40.9912157,77.9729341 L62.7973333,86.9340537" id="Fill-6" sketch:type="MSShapeGroup"></path>
            <path d="M44.8481569,23.1111603 C50.9796863,25.3178324 55.8138824,31.9695622 58.2242353,41.464345 C52.4175686,39.2643906 45.0505882,38.1087193 40.8466667,38.2479154 L40.7945882,38.2479154 L40.7656471,38.2479154 C37.1255686,38.1269194 29.5705882,39.0647356 23.2155294,41.5103531 C25.3493333,31.7564719 30.4080784,24.846581 36.925098,22.8875248 C39.5243137,22.09945 42.2652549,22.1810773 44.8481569,23.1111603" id="Fill-7" sketch:type="MSShapeGroup"></path>
            <path d="M44.4163922,13.1566086 L44.4163922,21.1646021 C42.1390588,20.5205663 39.7797647,20.4504996 37.4898039,20.9572921 L37.4898039,13.3696989 C37.9678431,12.9387535 38.4767059,12.6056827 39.0010196,12.386812 C40.1603922,11.8867372 41.4297255,11.8694744 42.7789804,12.3359609 C43.4709804,12.5759219 44.0367059,12.9032124 44.4163922,13.1566086" id="Fill-8" sketch:type="MSShapeGroup"></path>
            <path d="M40.7887843,0.00195280716 C41.1636863,0.910008137 41.8672157,3.57449634 42.0802353,10.9624345 C41.2099608,10.8021481 40.3560784,10.8116778 39.547451,11.0075053 C39.5021961,4.94224247 40.2298039,1.25549878 40.7887843,0.00195280716" id="Fill-9" sketch:type="MSShapeGroup"></path>
        </g>
    </g>
</svg>