<?xml version="1.0" encoding="UTF-8" standalone="no"?>
<svg width="162px" height="511px" viewBox="0 0 162 511" version="1.1" xmlns="http://www.w3.org/2000/svg" xmlns:xlink="http://www.w3.org/1999/xlink" xmlns:sketch="http://www.bohemiancoding.com/sketch/ns">
    <!-- Generator: Sketch 3.4 (15575) - http://www.bohemiancoding.com/sketch -->
    <title>left-ejuice-bottles</title>
    <desc>Created with Sketch.</desc>
    <defs>
        <path id="path-1" d="M0,0.666 L80.027,0.666 L80.027,215 L0,215 L0,0.666 Z"></path>
        <path id="path-3" d="M0,0.666 L80.027,0.666 L80.027,215 L0,215 L0,0.666 Z"></path>
        <path id="path-5" d="M0,0.666 L80.027,0.666 L80.027,215 L0,215 L0,0.666 Z"></path>
    </defs>
    <g id="Page-1" stroke="none" stroke-width="1" fill="none" fill-rule="evenodd" sketch:type="MSPage">
        <g id="Desktop-HD" sketch:type="MSArtboardGroup" transform="translate(-258.000000, -148.000000)">
            <g id="left-ejuice-bottles" sketch:type="MSLayerGroup" transform="translate(258.000000, 148.000000)">
                <g id="Page-1" sketch:type="MSShapeGroup">
                    <path d="M27.3465541,103.994712 C18.3439119,106.347426 13.1096917,116.273038 15.6786275,126.120624 L44.4078385,236.282025 C45.1115083,238.978271 47.8742239,240.598404 50.5665725,239.895082 L107.699141,224.963857 C110.392572,224.260536 112.011013,221.493848 111.308426,218.798685 L82.5781321,108.637285 C80.0102789,98.788615 70.5973431,92.6917163 61.5947009,95.04443 L27.3465541,103.994712 Z M109.197417,230.710721 L52.0648477,245.641945 C46.2070679,247.173214 40.1966459,243.647937 38.6669761,237.78295 L9.93668257,127.621549 C6.54282936,114.605223 13.6802055,101.427426 25.8471963,98.2478485 L60.0953431,89.2975665 C72.2634165,86.1169057 84.9251413,94.1200335 88.3189945,107.136359 L117.049288,217.29776 C118.578958,223.162747 115.056279,229.179452 109.197417,230.710721 L109.197417,230.710721 Z" id="Fill-1" fill="#1F1600"></path>
                    <path d="M68.6277174,83.2381639 L15.4454422,97.136622 L17.007589,103.127318 L70.1898642,89.2288599 L68.6277174,83.2381639 Z" id="Fill-3" fill="#1F1600"></path>
                    <path d="M59.1863101,42.1537797 L3.62021835,56.6753656 L13.7649706,95.5780441 L69.332145,81.0553744 L59.1863101,42.1537797 Z" id="Fill-5" fill="#1F1600"></path>
                    <path d="M15.8866972,91.9541498 L65.7119266,78.9324053 L57.0654495,45.777674 L7.24022018,58.7994185 L15.8866972,91.9541498 Z M72.9521468,83.1794273 L11.6441101,99.2019383 L0,54.5523965 L61.3080367,38.5298855 L72.9521468,83.1794273 Z" id="Fill-7" fill="#1F1600"></path>
                    <path d="M19.488945,3.73139736 L19.488945,3.73139736 C11.7290917,5.75900088 7.08054128,13.7003577 9.10602752,21.4694062 L17.3519541,53.0863665 L45.4543578,45.7432123 L37.2084312,14.1251683 C35.1818624,6.35611982 27.2487982,1.70379383 19.488945,3.73139736" id="Fill-9" fill="#1F1600"></path>
                    <path d="M19.4732477,49.4631225 L41.8337064,43.6198097 L34.3369174,14.8746555 C32.7282202,8.7040652 26.4027706,4.99347489 20.2386239,6.60493744 C14.0733945,8.2164 10.3677615,14.547378 11.9764587,20.719052 L19.4732477,49.4631225 Z M49.0739266,47.865748 L15.2306606,56.710911 L6.23559633,22.2188934 C3.79981651,12.879563 9.4086055,3.2964 18.7392661,0.858074009 C28.0699266,-1.58025198 37.642,4.0344 40.0777798,13.3748141 L49.0739266,47.865748 Z" id="Fill-11" fill="#1F1600"></path>
                    <path d="M76.2612349,221.988016 L76.5405376,221.915408 L75.186244,199.747232 L47.8513817,94.9360599 L39.2828495,97.1760687 L66.6177119,201.986157 L76.2612349,221.988016 Z M82.7598954,226.427937 L73.0384275,228.969214 L61.0229963,204.047355 L32.0437119,92.9290467 L52.0939688,87.6893551 L81.0732532,198.80658 L82.7598954,226.427937 Z" id="Fill-13" fill="#1F1600"></path>
                    <path d="M32.493844,203.714226 L105.46656,184.643265 L88.1183945,118.123565 L15.1456789,137.194525 L32.493844,203.714226 Z" id="Fill-15" fill="#FFFFFF"></path>
                    <path d="M34.6148128,200.090656 L101.846666,182.519537 L85.9978587,121.747784 L18.7660055,139.318903 L34.6148128,200.090656 Z M109.086886,186.766559 L30.3722257,207.338445 L11.5257853,135.071881 L90.2393633,114.499996 L109.086886,186.766559 Z" id="Fill-17" fill="#1F1600"></path>
                </g>
                <g id="Page-1" transform="translate(118.900165, 402.063273) rotate(4.000000) translate(-118.900165, -402.063273) translate(78.400165, 294.563273)">
                    <path d="M75.9421,45.8498 L25.4221,40.9748 L22.1081,75.3098 L72.6291,80.1848 L75.9421,45.8498 Z" id="Fill-1" fill="#1F1600" sketch:type="MSShapeGroup"></path>
                    <path d="M24.9701,72.9518 L70.2711,77.3228 L73.0801,48.2078 L27.7791,43.8368 L24.9701,72.9518 Z M74.9871,83.0468 L19.2471,77.6678 L23.0631,38.1138 L78.8041,43.4918 L74.9871,83.0468 Z" id="Fill-2" fill="#1F1600" sketch:type="MSShapeGroup"></path>
                    <path d="M76.1748,66.4964 L21.2458,61.1964 L19.9038,75.0974 L74.8338,80.3974 L76.1748,66.4964 Z" id="Fill-3" fill="#1F1600" sketch:type="MSShapeGroup"></path>
                    <path d="M22.766,72.7391 L72.476,77.5361 L73.314,68.8541 L23.604,64.0581 L22.766,72.7391 Z M77.192,83.2591 L17.043,77.4551 L18.888,58.3341 L79.037,64.1381 L77.192,83.2591 Z" id="Fill-4" fill="#1F1600" sketch:type="MSShapeGroup"></path>
                    <g id="Group-24">
                        <path d="M54.5495,3.3316 L54.5495,3.3316 C48.5045,2.7486 43.0525,7.9946 42.3715,15.0506 L40.0765,38.8296 L61.9675,40.9416 L64.2625,17.1626 C64.9435,10.1076 60.5945,3.9146 54.5495,3.3316" id="Fill-5" fill="#1F1600" sketch:type="MSShapeGroup"></path>
                        <g id="Group-9">
                            <mask id="mask-2" sketch:name="Clip 8" fill="white">
                                <use xlink:href="#path-1"></use>
                            </mask>
                            <g id="Clip-8"></g>
                            <path d="M42.9381,36.4716 L59.6101,38.0806 L61.6521,16.9106 C62.1931,11.3056 58.8941,6.3846 54.2971,5.9416 C49.7011,5.4976 45.5221,9.6966 44.9811,15.3026 L42.9381,36.4716 Z M64.3261,43.8036 L37.2151,41.1876 L39.7611,14.7986 C40.5801,6.3156 47.3271,0.0006 54.8011,0.7216 C62.2751,1.4426 67.6911,8.9316 66.8721,17.4146 L64.3261,43.8036 Z" id="Fill-7" fill="#1F1600" sketch:type="MSShapeGroup" mask="url(#mask-2)"></path>
                        </g>
                        <path d="M36.0247,193.9827 L36.2777,194.0067 L41.8947,175.2207 L51.0797,80.0277 L43.2897,79.2757 L34.1037,174.4687 L36.0247,193.9827 Z M40.0667,199.6407 L31.2287,198.7877 L28.8357,174.4737 L38.5737,73.5527 L56.8037,75.3117 L47.0647,176.2337 L40.0667,199.6407 Z" id="Fill-10" fill="#1F1600" sketch:type="MSShapeGroup"></path>
                        <g id="Group-14">
                            <mask id="mask-4" sketch:name="Clip 13" fill="white">
                                <use xlink:href="#path-3"></use>
                            </mask>
                            <g id="Clip-13"></g>
                            <path d="M40.585,86.6501 C27.172,85.3561 15.206,95.2151 13.912,108.6291 L5.274,198.1471 C4.935,201.6571 7.515,204.7881 11.025,205.1271 L58.686,209.7261 C62.196,210.0651 65.326,207.4851 65.665,203.9751 L74.303,114.4561 C75.597,101.0431 65.738,89.0771 52.325,87.7831 L40.585,86.6501 Z M58.182,214.9461 L10.521,210.3471 C4.133,209.7301 -0.562,204.0321 0.054,197.6441 L8.692,108.1251 C10.264,91.8341 24.797,79.8581 41.089,81.4301 L52.829,82.5631 C69.12,84.1351 81.095,98.6681 79.523,114.9601 L70.885,204.4791 C70.268,210.8661 64.57,215.5621 58.182,214.9461 L58.182,214.9461 Z" id="Fill-12" fill="#1F1600" sketch:type="MSShapeGroup" mask="url(#mask-4)"></path>
                        </g>
                        <path d="M32.5029,86.8265 L28.9269,82.9915 C30.3139,81.6975 31.1789,79.9415 31.3619,78.0465 L36.5819,78.5505 C36.2759,81.7195 34.8269,84.6595 32.5029,86.8265" id="Fill-15" fill="#1F1600" sketch:type="MSShapeGroup"></path>
                        <path d="M60.6988,89.5472 C58.8318,86.9752 57.9718,83.8132 58.2778,80.6432 L63.4978,81.1472 C63.3148,83.0422 63.8278,84.9312 64.9418,86.4662 L60.6988,89.5472 Z" id="Fill-17" fill="#1F1600" sketch:type="MSShapeGroup"></path>
                        <path d="M4.9899,169.9496 L71.3359,176.3516 L77.1659,115.9366 L10.8199,109.5346 L4.9899,169.9496 Z" id="Fill-19" fill="#FFFFFF" sketch:type="MSShapeGroup"></path>
                        <g id="Group-23">
                            <mask id="mask-6" sketch:name="Clip 22" fill="white">
                                <use xlink:href="#path-5"></use>
                            </mask>
                            <g id="Clip-22"></g>
                            <path d="M7.8513,167.5914 L68.9783,173.4894 L74.3043,118.2944 L13.1773,112.3954 L7.8513,167.5914 Z M73.6943,179.2134 L2.1283,172.3074 L8.4613,106.6724 L80.0273,113.5784 L73.6943,179.2134 Z" id="Fill-21" fill="#1F1600" sketch:type="MSShapeGroup" mask="url(#mask-6)"></path>
                        </g>
                    </g>
                </g>
            </g>
        </g>
    </g>
</svg>