<?xml version="1.0" encoding="UTF-8" standalone="no"?>
<svg viewBox="0 0 155 497" version="1.1" xmlns="http://www.w3.org/2000/svg" xmlns:xlink="http://www.w3.org/1999/xlink" xmlns:sketch="http://www.bohemiancoding.com/sketch/ns">
    <!-- Generator: Sketch 3.4 (15575) - http://www.bohemiancoding.com/sketch -->
    <title>Page 1 + Page 1</title>
    <desc>Created with Sketch.</desc>
    <defs>
        <path id="path-1" d="M0,0.182 L107.659,0.182 L107.659,261 L0,261 L0,0.182 Z"></path>
        <path id="path-3" d="M0,0.582 L92.934,0.582 L92.934,196 L0,196 L0,0.582 Z"></path>
    </defs>
    <g id="Page-1" stroke="none" stroke-width="1" fill="none" fill-rule="evenodd" sketch:type="MSPage">
        <g id="Desktop-HD" sketch:type="MSArtboardGroup" transform="translate(-963.000000, -164.000000)">
            <g id="Page-1-+-Page-1" sketch:type="MSLayerGroup" transform="translate(963.000000, 164.000000)">
                <g id="Page-1" transform="translate(47.000000, 0.000000)">
                    <path d="M103.7645,57.5675 L56.0645,46.2565 L48.5625,77.8925 L96.2635,89.2035 L103.7645,57.5675 Z" id="Fill-1" fill="#1F1600" sketch:type="MSShapeGroup"></path>
                    <path d="M44.6679,80.2944 L98.6649,93.0984 L107.6599,55.1654 L53.6629,42.3624 L44.6679,80.2944 Z M52.4569,75.4904 L58.4659,50.1524 L99.8689,59.9694 L93.8609,85.3084 L52.4569,75.4904 Z" id="Fill-2" fill="#1F1600" sketch:type="MSShapeGroup"></path>
                    <g id="Group-18">
                        <path d="M91.3015,3.8901 L91.3015,3.8901 C82.5405,1.8131 73.8685,6.7531 71.9305,14.9251 L64.0515,48.1511 L95.7765,55.6731 L103.6555,22.4481 C105.5935,14.2761 100.0625,5.9671 91.3015,3.8901" id="Fill-3" fill="#1F1600" sketch:type="MSShapeGroup"></path>
                        <path d="M67.9474,45.7491 L93.3754,51.7781 L100.5074,21.7011 C102.0304,15.2781 97.5664,8.7011 90.5554,7.0391 C83.5444,5.3761 76.6024,9.2491 75.0794,15.6721 L67.9474,45.7491 Z M98.1794,59.5691 L60.1574,50.5531 L68.7824,14.1791 C71.1284,4.2841 81.5654,-1.7439 92.0484,0.7421 C102.5314,3.2271 109.1504,13.3001 106.8044,23.1951 L98.1794,59.5691 Z" id="Fill-5" fill="#1F1600" sketch:type="MSShapeGroup"></path>
                        <path d="M40.4716,218.0574 L40.5586,218.0784 L50.1346,197.0404 L76.2466,86.9194 L67.4746,84.8394 L41.3626,194.9604 L40.4716,218.0574 Z M44.2446,225.6034 L33.7996,223.1264 L34.9196,194.0804 L62.6706,77.0494 L84.0366,82.1154 L56.2856,199.1474 L44.2446,225.6034 Z" id="Fill-7" fill="#1F1600" sketch:type="MSShapeGroup"></path>
                        <g id="Group-11">
                            <mask id="mask-2" sketch:name="Clip 10" fill="white">
                                <use xlink:href="#path-1"></use>
                            </mask>
                            <g id="Clip-10"></g>
                            <path d="M63.0944,104.9661 C50.0184,101.8651 36.8574,109.9811 33.7574,123.0571 L6.7884,236.7901 C6.0304,239.9891 8.0154,243.2091 11.2154,243.9681 L55.0674,254.3661 C58.2664,255.1251 61.4864,253.1391 62.2454,249.9391 L89.2134,136.2071 C92.3144,123.1311 84.1984,109.9701 71.1234,106.8701 L63.0944,104.9661 Z M53.5744,260.6631 L9.7224,250.2651 C3.0504,248.6831 -1.0906,241.9681 0.4914,235.2961 L27.4604,121.5641 C31.3834,105.0161 48.0394,94.7451 64.5874,98.6691 L72.6164,100.5731 C89.1644,104.4971 99.4344,121.1521 95.5104,137.7001 L68.5424,251.4331 C66.9604,258.1041 60.2454,262.2451 53.5744,260.6631 L53.5744,260.6631 Z" id="Fill-9" fill="#1F1600" sketch:type="MSShapeGroup" mask="url(#mask-2)"></path>
                        </g>
                        <path d="M84.3221,115.0793 C82.3931,111.4723 81.8511,107.2893 82.7971,103.3003 L84.1421,97.6283 L85.6861,96.8883 L84.6601,95.4443 L86.5001,87.6833 L58.5721,81.0613 L56.7311,88.8223 L55.1661,89.6513 L56.2141,91.0063 L54.8691,96.6783 C53.9781,100.4323 51.7491,103.5243 48.0521,106.1303 L44.3231,100.8413 C46.7051,99.1623 48.0551,97.3643 48.5721,95.1843 L49.2041,92.5193 L47.6411,90.4973 L48.7751,85.7123 L51.1111,84.4753 L53.7681,73.2713 L94.2901,82.8803 L91.6331,94.0843 L93.1651,96.2383 L92.0301,101.0233 L89.7261,102.1283 L89.0941,104.7933 C88.5131,107.2443 88.8441,109.8133 90.0291,112.0273 L84.3221,115.0793 Z" id="Fill-12" fill="#1F1600" sketch:type="MSShapeGroup"></path>
                        <path d="M3.8951,234.9154 L65.4181,249.5034 L91.4431,139.7514 L29.9201,125.1624 L3.8951,234.9154 Z" id="Fill-14" fill="#FFFFFF" sketch:type="MSShapeGroup"></path>
                        <path d="M7.7903,232.5136 L63.0163,245.6086 L87.5483,142.1526 L32.3223,129.0576 L7.7903,232.5136 Z M67.8203,253.3996 L0.0003,237.3176 L27.5183,121.2676 L95.3383,137.3496 L67.8203,253.3996 Z" id="Fill-16" fill="#1F1600" sketch:type="MSShapeGroup"></path>
                    </g>
                </g>
                <g id="Page-1" transform="translate(0.000000, 301.000000)">
                    <g id="Group-3">
                        <mask id="mask-4" sketch:name="Clip 2" fill="white">
                            <use xlink:href="#path-3"></use>
                        </mask>
                        <g id="Clip-2"></g>
                        <path d="M70.2867,100.7878 L71.3647,105.2578 L81.8367,148.6998 L87.8277,173.5518 C88.7547,177.3988 86.3587,181.3108 82.5047,182.2398 L46.5717,190.9018 C42.7177,191.8308 38.8017,189.4408 37.8747,185.5938 L31.8837,160.7418 L21.4117,117.2998 L20.3337,112.8298 L16.8097,98.2118 C14.8847,90.2248 19.8647,82.0458 27.9027,80.1088 L48.6767,75.1008 C56.6777,73.1718 64.8377,78.1828 66.7627,86.1698 L70.2867,100.7878 Z M14.0477,74.0268 L5.2467,38.0008 C12.5827,27.5108 13.9277,25.5198 11.8427,11.7158 C11.5677,9.7668 12.7317,9.6028 14.0157,9.2938 C18.9347,8.1078 23.8157,6.9308 28.7347,5.7448 C30.0187,5.4358 31.1307,5.0508 31.7727,6.9118 C36.2067,20.1488 38.3117,21.3088 49.6207,27.3038 L58.2017,63.3828 C43.5207,66.9228 28.7657,70.4798 14.0477,74.0268 L14.0477,74.0268 Z M57.7717,70.6208 L57.2857,68.6048 L64.0757,66.9678 L53.8807,24.0298 C42.7547,17.9898 40.6747,18.0638 36.4107,5.3678 C34.2337,-1.0852 28.6587,0.7628 27.4027,1.0268 C22.6317,2.1768 17.8237,3.3358 13.0517,4.4868 C11.9587,4.7888 6.0087,5.7188 7.0117,12.4548 C9.0607,26.1118 6.7997,27.0448 -0.0003,37.0178 L10.4527,79.8948 L17.2427,78.2578 L17.7287,80.2738 C12.5757,85.1598 10.3697,92.4368 12.0387,99.3618 L33.1037,186.7438 C34.6577,193.1928 41.2607,197.2228 47.7207,195.6648 L83.6527,187.0028 C90.1487,185.4368 94.1537,178.8508 92.5997,172.4018 L71.5347,85.0188 C69.8657,78.0948 64.5847,72.6218 57.7717,70.6208 L57.7717,70.6208 Z" id="Fill-1" fill="#1F1600" sketch:type="MSShapeGroup" mask="url(#mask-4)"></path>
                    </g>
                    <path d="M32.6004,163.5036 L82.2234,151.5416 L70.0594,101.0806 L20.4364,113.0426 L32.6004,163.5036 Z M88.6224,155.4546 L28.6874,169.9026 L14.0364,109.1296 L73.9724,94.6816 L88.6224,155.4546 Z" id="Fill-4" fill="#1F1600" sketch:type="MSShapeGroup"></path>
                </g>
            </g>
        </g>
    </g>
</svg>
